<svg xmlns="http://www.w3.org/2000/svg" data-name="Layer 1" viewBox="0 0 888 553">
  <path d="M615 108h182v332H615z"/>
  <path fill="#fff" d="M632 423h148V125H632z"/>
  <path fill="#e6e6e6" d="M689 189h43v4h-43zM689 203h75v4h-75zM689 217h75v4h-75zM648 189h32v32h-32zM689 258h43v4h-43zM689 272h75v4h-75zM689 286h75v4h-75zM648 258h32v32h-32zM689 327h43v4h-43zM689 341h75v4h-75zM689 355h75v4h-75zM648 327h32v32h-32zM107 108h182v332H107z"/>
  <path fill="#fff" d="M124 423h148V125H124z"/>
  <path fill="#e6e6e6" d="M181 189h43v4h-43zM181 203h75v4h-75zM181 217h75v4h-75zM140 189h32v32h-32zM181 258h43v4h-43zM181 272h75v4h-75zM181 286h75v4h-75zM140 258h32v32h-32zM181 327h43v4h-43zM181 341h75v4h-75zM181 355h75v4h-75zM140 327h32v32h-32z"/>
  <ellipse cx="444" cy="449" fill="#e6e6e6" rx="444" ry="18"/>
  <path fill="#3f3d56" d="M328 0h248v452H328z"/>
  <path fill="#fff" d="M339 441h226V12H339z"/>
  <path fill="#6c63ff" d="M429 110h59v6h-59z"/>
  <path fill="#e6e6e6" d="M429 129h103v6H429zM429 148h103v6H429z"/>
  <path fill="#6c63ff" d="M373 110h44v44h-44zM429 204h59v6h-59z"/>
  <path fill="#e6e6e6" d="M429 223h103v6H429zM429 242h103v6H429z"/>
  <path fill="#6c63ff" d="M373 204h44v44h-44zM429 298h59v6h-59z"/>
  <path fill="#e6e6e6" d="M429 317h103v6H429zM429 336h103v6H429z"/>
  <path fill="#6c63ff" d="M373 298h44v44h-44z"/>
  <path fill="#ffb8b8" d="M362 321l-3 13s1 30-7 27-6-29-6-29l7-13z"/>
  <circle cx="317" cy="158" r="20" fill="#ffb8b8"/>
  <path fill="#ffb8b8" d="M302 164l-2 29 25 3s0-24 2-27-25-5-25-5z"/>
  <path fill="#575a89" d="M357 201l-32-14s-16-12-25-3l-4 6s-36 14-36 25l14 55s-8 31 4 33l65 6s9-11 1-25l3-33z"/>
  <path fill="#575a89" d="M335 202l22-1s7 2 12 21 6 50 6 50l-12 56-15-2 6-54-10-36zM272 208l-11 3s-9 14-9 21l-4 60 26 43 8-21-16-27 13-33z"/>
  <path fill="#2f2e41" d="M346 307l-72-6s-7 45-6 63l2 46-8 122 31-4 4-101 13-55 15 70 10 90 27-3-9-109s8-98-7-113z"/>
  <path fill="#2f2e41" d="M356 524l9 3s19-5 14 8-19 11-19 11-17 13-24 3l4-21zM283 524l9 3s19-5 14 8-19 11-19 11-17 13-24 3l4-21zM302 176s-21-15-10-33c7-13 23-12 32-10a15 15 0 0111 9c2 3 2 7-4 7-12 0-6 9-6 9s-8 2-6 9-17 9-17 9z"/>
</svg>
