{
  "accessors": [
    {
      "bufferView": 2,
      "componentType": 5126,
      "count": 195,
      "max": [
        1.827622652053833,
        1.1779558658599854,
        1.9767129421234131
      ],
      "min": [
        -2.0385637283325195,
        -1.0669846534729004,
        -2.0187234878540039
      ],
      "type": "VEC3"
    },
    {
      "bufferView": 2,
      "byteOffset": 2340,
      "componentType": 5126,
      "count": 195,
      "max": [
        0.96855831146240234,
        0.5905112624168396,
        0.92686182260513306
      ],
      "min": [
        -0.97346925735473633,
        -0.99237638711929321,
        -0.98286294937133789
      ],
      "type": "VEC3"
    },
    {
      "bufferView": 1,
      "componentType": 5126,
      "count": 195,
      "max": [
        0.625,
        1
      ],
      "min": [
        0.125,
        -0.00014802976511418819
      ],
      "type": "VEC2"
    },
    {
      "bufferView": 0,
      "componentType": 5125,
      "count": 237,
      "max": [
        194
      ],
      "min": [
        0
      ],
      "type": "SCALAR"
    },
    {
      "bufferView": 2,
      "byteOffset": 4680,
      "componentType": 5126,
      "count": 426,
      "max": [
        7.1901025772094727,
        15.215524673461914,
        4.8098363876342773
      ],
      "min": [
        -18.604101181030273,
        -2.0333161354064941,
        -9.1362953186035156
      ],
      "type": "VEC3"
    },
    {
      "bufferView": 2,
      "byteOffset": 9792,
      "componentType": 5126,
      "count": 426,
      "max": [
        0.99680477380752563,
        0.97022652626037598,
        0.99310201406478882
      ],
      "min": [
        -0.96279597282409668,
        -0.98090749979019165,
        -0.99652659893035889
      ],
      "type": "VEC3"
    },
    {
      "bufferView": 1,
      "byteOffset": 1560,
      "componentType": 5126,
      "count": 426,
      "max": [
        1,
        1
      ],
      "min": [
        0,
        0
      ],
      "type": "VEC2"
    },
    {
      "bufferView": 0,
      "byteOffset": 948,
      "componentType": 5125,
      "count": 426,
      "max": [
        425
      ],
      "min": [
        0
      ],
      "type": "SCALAR"
    },
    {
      "bufferView": 2,
      "byteOffset": 14904,
      "componentType": 5126,
      "count": 348,
      "max": [
        3.6115870475769043,
        11.817880630493164,
        3.3980133533477783
      ],
      "min": [
        -3.6092085838317871,
        -1.5147446393966675,
        -4.6287918090820312
      ],
      "type": "VEC3"
    },
    {
      "bufferView": 2,
      "byteOffset": 19080,
      "componentType": 5126,
      "count": 348,
      "max": [
        0.99707591533660889,
        0.99999803304672241,
        0.99595808982849121
      ],
      "min": [
        -0.99977701902389526,
        -0.9996495246887207,
        -0.99522411823272705
      ],
      "type": "VEC3"
    },
    {
      "bufferView": 1,
      "byteOffset": 4968,
      "componentType": 5126,
      "count": 348,
      "max": [
        0.7954859733581543,
        1
      ],
      "min": [
        0.12600238621234894,
        0
      ],
      "type": "VEC2"
    },
    {
      "bufferView": 0,
      "byteOffset": 2652,
      "componentType": 5125,
      "count": 348,
      "max": [
        347
      ],
      "min": [
        0
      ],
      "type": "SCALAR"
    },
    {
      "bufferView": 2,
      "byteOffset": 23256,
      "componentType": 5126,
      "count": 54,
      "max": [
        -16.419740676879883,
        1.9566184282302856,
        5.0470623970031738
      ],
      "min": [
        -18.677265167236328,
        -0.36326277256011963,
        2.6934075355529785
      ],
      "type": "VEC3"
    },
    {
      "bufferView": 2,
      "byteOffset": 23904,
      "componentType": 5126,
      "count": 54,
      "max": [
        0.99538838863372803,
        0.98159331083297729,
        0.94889819622039795
      ],
      "min": [
        -0.99538838863372803,
        -0.85171908140182495,
        -0.9561733603477478
      ],
      "type": "VEC3"
    },
    {
      "bufferView": 1,
      "byteOffset": 7752,
      "componentType": 5126,
      "count": 54,
      "max": [
        1,
        0.47238200902938843
      ],
      "min": [
        0,
        0
      ],
      "type": "VEC2"
    },
    {
      "bufferView": 0,
      "byteOffset": 4044,
      "componentType": 5125,
      "count": 54,
      "max": [
        53
      ],
      "min": [
        0
      ],
      "type": "SCALAR"
    },
    {
      "bufferView": 2,
      "byteOffset": 24552,
      "componentType": 5126,
      "count": 680,
      "max": [
        15.781309127807617,
        16.707939147949219,
        13.698681831359863
      ],
      "min": [
        -12.520790100097656,
        -2.8598344326019287,
        -16.152671813964844
      ],
      "type": "VEC3"
    },
    {
      "bufferView": 2,
      "byteOffset": 32712,
      "componentType": 5126,
      "count": 680,
      "max": [
        0.97874772548675537,
        0.99520474672317505,
        0.96773386001586914
      ],
      "min": [
        -0.99181723594665527,
        -0.99999487400054932,
        -0.98733192682266235
      ],
      "type": "VEC3"
    },
    {
      "bufferView": 1,
      "byteOffset": 8184,
      "componentType": 5126,
      "count": 680,
      "max": [
        1,
        1
      ],
      "min": [
        0,
        -0.001681789755821228
      ],
      "type": "VEC2"
    },
    {
      "bufferView": 0,
      "byteOffset": 4260,
      "componentType": 5125,
      "count": 744,
      "max": [
        679
      ],
      "min": [
        0
      ],
      "type": "SCALAR"
    },
    {
      "bufferView": 2,
      "byteOffset": 40872,
      "componentType": 5126,
      "count": 212,
      "max": [
        1.7901564836502075,
        1.2045762538909912,
        1.8917278051376343
      ],
      "min": [
        -1.7519001960754395,
        0.98102706670761108,
        -2.057396411895752
      ],
      "type": "VEC3"
    },
    {
      "bufferView": 2,
      "byteOffset": 43416,
      "componentType": 5126,
      "count": 212,
      "max": [
        0.99263262748718262,
        0.99974441528320312,
        0.84962683916091919
      ],
      "min": [
        -0.99844801425933838,
        -0.81071925163269043,
        -0.75178247690200806
      ],
      "type": "VEC3"
    },
    {
      "bufferView": 1,
      "byteOffset": 13624,
      "componentType": 5126,
      "count": 212,
      "max": [
        0.875,
        1
      ],
      "min": [
        0.625,
        0
      ],
      "type": "VEC2"
    },
    {
      "bufferView": 0,
      "byteOffset": 7236,
      "componentType": 5125,
      "count": 294,
      "max": [
        211
      ],
      "min": [
        0
      ],
      "type": "SCALAR"
    },
    {
      "bufferView": 2,
      "byteOffset": 45960,
      "componentType": 5126,
      "count": 162,
      "max": [
        0.43462848663330078,
        1.1846975088119507,
        2.0328464508056641
      ],
      "min": [
        -0.80729794502258301,
        -0.0067293504253029823,
        -0.70085614919662476
      ],
      "type": "VEC3"
    },
    {
      "bufferView": 2,
      "byteOffset": 47904,
      "componentType": 5126,
      "count": 162,
      "max": [
        0.99123644828796387,
        0.99983388185501099,
        0.97929823398590088
      ],
      "min": [
        -0.98787397146224976,
        -0.99962460994720459,
        -0.99102127552032471
      ],
      "type": "VEC3"
    },
    {
      "bufferView": 1,
      "byteOffset": 15320,
      "componentType": 5126,
      "count": 162,
      "max": [
        0.81035786867141724,
        0.93827426433563232
      ],
      "min": [
        0.62499994039535522,
        0.5625
      ],
      "type": "VEC2"
    },
    {
      "bufferView": 0,
      "byteOffset": 8412,
      "componentType": 5125,
      "count": 198,
      "max": [
        161
      ],
      "min": [
        0
      ],
      "type": "SCALAR"
    }
  ],
  "asset": {
    "extras": {
      "author": "Supachai (https://sketchfab.com/supachailllpay)",
      "license": "CC-BY-4.0 (http://creativecommons.org/licenses/by/4.0/)",
      "source": "https://sketchfab.com/3d-models/floating-island-1f59362585b946038380b9740bb62173",
      "title": "Floating Island"
    },
    "generator": "Sketchfab-7.51.0",
    "version": "2.0"
  },
  "bufferViews": [
    {
      "buffer": 0,
      "byteLength": 9204,
      "byteOffset": 0,
      "name": "floatBufferViews",
      "target": 34963
    },
    {
      "buffer": 0,
      "byteLength": 16616,
      "byteOffset": 9204,
      "byteStride": 8,
      "name": "floatBufferViews",
      "target": 34962
    },
    {
      "buffer": 0,
      "byteLength": 49848,
      "byteOffset": 25820,
      "byteStride": 12,
      "name": "floatBufferViews",
      "target": 34962
    }
  ],
  "buffers": [
    {
      "byteLength": 75668,
      "uri": "scene.bin"
    }
  ],
  "materials": [
    {
      "doubleSided": true,
      "emissiveFactor": [
        0,
        0,
        0
      ],
      "name": "Soil",
      "pbrMetallicRoughness": {
        "baseColorFactor": [
          0.42461500000000002,
          0.21673300000000001,
          0.13639499999999999,
          1
        ],
        "metallicFactor": 0,
        "roughnessFactor": 1
      }
    },
    {
      "doubleSided": true,
      "emissiveFactor": [
        0,
        0,
        0
      ],
      "name": "Bush",
      "pbrMetallicRoughness": {
        "baseColorFactor": [
          0.42692999999999998,
          0.69206500000000004,
          0.027360099999999998,
          1
        ],
        "metallicFactor": 0,
        "roughnessFactor": 0.80000000000000004
      }
    },
    {
      "doubleSided": true,
      "emissiveFactor": [
        0,
        0,
        0
      ],
      "name": "Wood",
      "pbrMetallicRoughness": {
        "baseColorFactor": [
          0.74202000000000001,
          0.36423299999999997,
          0.082150600000000004,
          1
        ],
        "metallicFactor": 0,
        "roughnessFactor": 0.80000000000000004
      }
    },
    {
      "doubleSided": true,
      "emissiveFactor": [
        0,
        0,
        0
      ],
      "name": "Orange_Bush",
      "pbrMetallicRoughness": {
        "baseColorFactor": [
          1,
          0.13433100000000001,
          0.012785400000000001,
          1
        ],
        "metallicFactor": 0,
        "roughnessFactor": 0.80000000000000004
      }
    },
    {
      "doubleSided": true,
      "emissiveFactor": [
        0,
        0,
        0
      ],
      "name": "Rock",
      "pbrMetallicRoughness": {
        "baseColorFactor": [
          0.45274500000000001,
          0.45274500000000001,
          0.45274500000000001,
          1
        ],
        "metallicFactor": 0,
        "roughnessFactor": 0.40000000000000002
      }
    },
    {
      "doubleSided": true,
      "emissiveFactor": [
        0,
        0,
        0
      ],
      "name": "Grass",
      "pbrMetallicRoughness": {
        "baseColorFactor": [
          0.0252643,
          0.380052,
          0.0923958,
          1
        ],
        "metallicFactor": 0,
        "roughnessFactor": 0.80000000000000004
      }
    },
    {
      "doubleSided": true,
      "emissiveFactor": [
        0,
        0,
        0
      ],
      "name": "Water",
      "pbrMetallicRoughness": {
        "baseColorFactor": [
          0.058422200000000001,
          0.52716600000000002,
          1,
          1
        ],
        "metallicFactor": 0,
        "roughnessFactor": 0.10000000000000001
      }
    }
  ],
  "meshes": [
    {
      "primitives": [
        {
          "attributes": {
            "NORMAL": 1,
            "POSITION": 0,
            "TEXCOORD_0": 2
          },
          "indices": 3,
          "material": 0,
          "mode": 4
        }
      ]
    },
    {
      "primitives": [
        {
          "attributes": {
            "NORMAL": 5,
            "POSITION": 4,
            "TEXCOORD_0": 6
          },
          "indices": 7,
          "material": 1,
          "mode": 4
        }
      ]
    },
    {
      "primitives": [
        {
          "attributes": {
            "NORMAL": 9,
            "POSITION": 8,
            "TEXCOORD_0": 10
          },
          "indices": 11,
          "material": 2,
          "mode": 4
        }
      ]
    },
    {
      "primitives": [
        {
          "attributes": {
            "NORMAL": 13,
            "POSITION": 12,
            "TEXCOORD_0": 14
          },
          "indices": 15,
          "material": 3,
          "mode": 4
        }
      ]
    },
    {
      "primitives": [
        {
          "attributes": {
            "NORMAL": 17,
            "POSITION": 16,
            "TEXCOORD_0": 18
          },
          "indices": 19,
          "material": 4,
          "mode": 4
        }
      ]
    },
    {
      "primitives": [
        {
          "attributes": {
            "NORMAL": 21,
            "POSITION": 20,
            "TEXCOORD_0": 22
          },
          "indices": 23,
          "material": 5,
          "mode": 4
        }
      ]
    },
    {
      "primitives": [
        {
          "attributes": {
            "NORMAL": 25,
            "POSITION": 24,
            "TEXCOORD_0": 26
          },
          "indices": 27,
          "material": 6,
          "mode": 4
        }
      ]
    }
  ],
  "nodes": [
    {
      "children": [
        1
      ],
      "name": "RootNode (gltf orientation matrix)",
      "rotation": [
        -0.70710678118654746,
        -0,
        -0,
        0.70710678118654757
      ]
    },
    {
      "children": [
        2
      ],
      "name": "RootNode (model correction matrix)"
    },
    {
      "children": [
        3
      ],
      "name": "root"
    },
    {
      "children": [
        4,
        6,
        10,
        12,
        14
      ],
      "matrix": [
        1,
        0,
        0,
        0,
        0,
        2.2204460492503131e-16,
        1,
        0,
        0,
        -1,
        2.2204460492503131e-16,
        0,
        0,
        0,
        0,
        1
      ],
      "name": "GLTF_SceneRootNode"
    },
    {
      "children": [
        5
      ],
      "matrix": [
        10,
        0,
        0,
        0,
        0,
        10,
        0,
        0,
        0,
        0,
        10,
        0,
        0,
        0,
        0,
        1
      ],
      "name": "Island_0"
    },
    {
      "mesh": 0,
      "name": ""
    },
    {
      "children": [
        7,
        8,
        9
      ],
      "matrix": [
        1,
        0,
        0,
        0,
        0,
        1,
        0,
        0,
        0,
        0,
        1,
        0,
        3.8889427185058594,
        10.782565116882324,
        -6.3269085884094238,
        1
      ],
      "name": "Tree_3"
    },
    {
      "mesh": 1,
      "name": ""
    },
    {
      "mesh": 2,
      "name": ""
    },
    {
      "mesh": 3,
      "name": ""
    },
    {
      "children": [
        11
      ],
      "name": "Rock_4"
    },
    {
      "mesh": 4,
      "name": ""
    },
    {
      "children": [
        13
      ],
      "matrix": [
        10,
        0,
        0,
        0,
        0,
        10,
        0,
        0,
        0,
        0,
        10,
        0,
        0,
        0,
        0,
        1
      ],
      "name": "Land_5"
    },
    {
      "mesh": 5,
      "name": ""
    },
    {
      "children": [
        15
      ],
      "matrix": [
        10,
        0,
        0,
        0,
        0,
        10,
        0,
        0,
        0,
        0,
        10,
        0,
        0,
        0,
        0,
        1
      ],
      "name": "River_6"
    },
    {
      "mesh": 6,
      "name": ""
    }
  ],
  "scene": 0,
  "scenes": [
    {
      "name": "OSG_Scene",
      "nodes": [
        0
      ]
    }
  ]
}

